<svg width="18" height="18" viewBox="0 0 18 18" fill="none" xmlns="http://www.w3.org/2000/svg">
<path d="M13.9958 11.1226L12.1576 10.9127C11.7162 10.8621 11.282 11.0141 10.9708 11.3252L9.63924 12.6568C7.59123 11.6147 5.91229 9.94301 4.8702 7.88775L6.209 6.54894C6.52018 6.23775 6.67216 5.80355 6.6215 5.3621L6.41163 3.53842C6.32479 2.8075 5.70966 2.2575 4.97151 2.2575H3.71955C2.90179 2.2575 2.22153 2.93776 2.27219 3.75552C2.65574 9.93577 7.59847 14.8713 13.7714 15.2548C14.5892 15.3055 15.2695 14.6252 15.2695 13.8075V12.5555C15.2767 11.8246 14.7267 11.2095 13.9958 11.1226Z" fill="#212121"/>
</svg>
